<svg width="64" height="64" viewBox="0 0 64 64" xmlns="http://www.w3.org/2000/svg">
  <!-- Bee body (fat oval shape) - moved down and bigger -->
  <ellipse cx="32" cy="40" rx="12" ry="16" fill="#ffff00" stroke="#000" stroke-width="2"/>
  
  <!-- Bee stripes (3 thick brown stripes) -->
  <ellipse cx="32" cy="32" rx="12" ry="5" fill="#8b4513"/>
  <ellipse cx="32" cy="40" rx="12" ry="5" fill="#8b4513"/>
  <ellipse cx="32" cy="48" rx="12" ry="5" fill="#8b4513"/>
  
  <!-- Bee head (round yellow head) - moved down and bigger -->
  <circle cx="32" cy="22" r="8" fill="#ffff00" stroke="#000" stroke-width="2"/>
  
  <!-- Eyes (two small black dots) - moved down -->
  <circle cx="29" cy="20" r="2" fill="#000"/>
  <circle cx="35" cy="20" r="2" fill="#000"/>
  
  <!-- Smile (simple curved line) - moved down -->
  <path d="M 27 24 Q 32 26 37 24" stroke="#000" stroke-width="2" fill="none"/>
  
  <!-- Antennae (two short thick black curved antennae) - moved down -->
  <path d="M 28 14 Q 26 10 24 8" stroke="#000" stroke-width="3" fill="none"/>
  <path d="M 36 14 Q 38 10 40 8" stroke="#000" stroke-width="3" fill="none"/>
  <circle cx="24" cy="8" r="2" fill="#000"/>
  <circle cx="40" cy="8" r="2" fill="#000"/>
  
  <!-- Wings (four light blue wings with thick black outline) - moved down and bigger -->
  <!-- Left wings -->
  <ellipse cx="20" cy="32" rx="6" ry="10" fill="#87ceeb" stroke="#000" stroke-width="2"/>
  <ellipse cx="18" cy="36" rx="5" ry="8" fill="#87ceeb" stroke="#000" stroke-width="2"/>
  
  <!-- Right wings -->
  <ellipse cx="44" cy="32" rx="6" ry="10" fill="#87ceeb" stroke="#000" stroke-width="2"/>
  <ellipse cx="46" cy="36" rx="5" ry="8" fill="#87ceeb" stroke="#000" stroke-width="2"/>
</svg>